<?xml version="1.0" encoding="UTF-8"?>
<svg width="54px" height="54px" viewBox="-1 -1 54 54" version="1.1" xmlns="http://www.w3.org/2000/svg" xmlns:xlink="http://www.w3.org/1999/xlink">
    <!-- Generator: sketchtool 47.1 (45422) - http://www.bohemiancoding.com/sketch -->
    <title>D854CD57-52E4-480F-9043-F099C17345DD</title>
    <desc>Created with sketchtool.</desc>
    <defs></defs>
    <g id="VD-V1" stroke="none" stroke-width="1" fill="none" fill-rule="evenodd">
        <g id="Meeting-Capture---attachments" transform="translate(-74.000000, -526.000000)">
            <g id="Group-2-Copy" transform="translate(74.000000, 526.000000)">
                <circle id="Oval-Copy" stroke="#2C3034" cx="26" cy="26" r="25"></circle>
                <g id="EF15" transform="translate(14.000000, 14.000000)" fill-rule="nonzero" fill="#2C3034">
                    <path d="M3.546387,20.592 C3.437187,20.5296 3.347487,20.4399 3.277287,20.3229 C3.207087,20.2059 3.171987,20.0811 3.171987,19.9485 C3.171987,19.8861 3.179787,19.8276 3.195387,19.773 C3.210987,19.7184 3.230487,19.6638 3.253887,19.6092 L11.525319,3.0537 C11.595441,2.9055 11.704602,2.7963 11.852802,2.7261 L13.876785,1.7082 C14.126385,1.5834 14.395485,1.521 14.684085,1.521 C14.723085,1.521 14.760135,1.521 14.795235,1.521 C14.830335,1.521 14.867385,1.5249 14.906385,1.5327 L15.456168,0.4329 C15.518568,0.3081 15.610218,0.20865 15.731118,0.13455 C15.852018,0.06045 15.982668,0.0234 16.123068,0.0234 C16.325868,0.0234 16.501368,0.0975 16.649568,0.2457 C16.797768,0.3939 16.871868,0.5694 16.871868,0.7722 C16.871868,0.8658 16.844568,0.9828 16.789968,1.1232 C16.735368,1.2636 16.671018,1.40985 16.596918,1.56195 C16.522818,1.71405 16.446768,1.8564 16.368768,1.989 C16.290768,2.1216 16.232268,2.2308 16.193268,2.3166 C16.396068,2.6286 16.497468,2.9679 16.497468,3.3345 L16.497468,5.265 C16.497468,5.3898 16.470168,5.5029 16.415568,5.6043 L9.676719,19.0827 L10.437219,19.4571 L13.210002,13.9113 C13.272402,13.7865 13.364013,13.68705 13.484835,13.61295 C13.605735,13.53885 13.736385,13.5018 13.876785,13.5018 C14.079585,13.5018 14.255085,13.5759 14.403285,13.7241 C14.551485,13.8723 14.625585,14.0478 14.625585,14.2506 C14.625585,14.352 14.598285,14.4651 14.543685,14.5899 L11.747502,20.1825 C11.622702,20.4321 11.455041,20.62905 11.244519,20.77335 C11.033919,20.91765 10.788219,20.9898 10.507419,20.9898 C10.234419,20.9898 9.975069,20.9235 9.729369,20.7909 C9.483747,20.6583 9.243936,20.5335 9.009936,20.4165 L8.179236,22.0779 C8.116836,22.2105 8.025186,22.3119 7.904286,22.3821 C7.783386,22.4523 7.652775,22.4874 7.512453,22.4874 C7.411053,22.4874 7.325253,22.4718 7.255053,22.4406 C7.161453,22.6278 7.069803,22.81305 6.980103,22.99635 C6.890403,23.17965 6.789003,23.3454 6.675903,23.4936 C6.562803,23.6418 6.424353,23.76075 6.260553,23.85045 C6.096753,23.94015 5.890092,23.985 5.64057,23.985 C5.39097,23.985 5.15307,23.9265 4.92687,23.8095 L3.827187,23.2596 C3.577587,23.1348 3.380637,22.96905 3.236337,22.76235 C3.092037,22.55565 3.019887,22.308 3.019887,22.0194 C3.019887,21.7542 3.080337,21.50655 3.201237,21.27645 C3.322137,21.04635 3.437187,20.8182 3.546387,20.592 L3.546387,20.592 Z M5.909553,21.7737 L4.89177,21.2706 L4.55247,21.9492 L5.57037,22.4523 L5.909553,21.7737 L5.909553,21.7737 Z M4.92687,19.6092 L7.173153,20.7324 L14.999985,5.0895 L14.999985,3.3345 C14.999985,3.2487 14.968785,3.1746 14.906385,3.1122 C14.843985,3.0498 14.769885,3.0186 14.684085,3.0186 C14.652885,3.0186 14.588535,3.0381 14.491035,3.0771 C14.393535,3.1161 14.280435,3.1668 14.151735,3.2292 C14.023035,3.2916 13.886535,3.35985 13.742235,3.43395 C13.597935,3.50805 13.459524,3.5802 13.327002,3.6504 C13.194402,3.7206 13.077402,3.783 12.976002,3.8376 C12.874602,3.8922 12.800502,3.9312 12.753702,3.9546 L4.92687,19.6092 L4.92687,19.6092 Z M3.019887,14.9994 C2.606487,14.9994 2.218476,14.9214 1.855854,14.7654 C1.493154,14.6094 1.175304,14.3949 0.902304,14.1219 C0.629304,13.8489 0.414804,13.53105 0.258804,13.16835 C0.102882,12.80565 0.024921,12.4176 0.024921,12.0042 C0.024921,11.5908 0.102882,11.20275 0.258804,10.84005 C0.414804,10.47735 0.629304,10.1595 0.902304,9.8865 C1.175304,9.6135 1.493154,9.399 1.855854,9.243 C2.218476,9.087 2.606487,9.009 3.019887,9.009 L6.389253,9.009 L5.64057,10.5066 L3.019887,10.5066 C2.809287,10.5066 2.614287,10.5456 2.434887,10.6236 C2.255487,10.7016 2.097537,10.80885 1.961037,10.94535 C1.824615,11.08185 1.717404,11.2398 1.639404,11.4192 C1.561404,11.5986 1.522404,11.7936 1.522404,12.0042 C1.522404,12.2148 1.561404,12.4098 1.639404,12.5892 C1.717404,12.7686 1.824615,12.92655 1.961037,13.06305 C2.097537,13.19955 2.255487,13.3068 2.434887,13.3848 C2.614287,13.4628 2.809287,13.5018 3.019887,13.5018 C3.222687,13.5018 3.398187,13.5759 3.546387,13.7241 C3.694587,13.8723 3.768687,14.0478 3.768687,14.2506 C3.768687,14.4534 3.694587,14.6289 3.546387,14.7771 C3.398187,14.9253 3.222687,14.9994 3.019887,14.9994 L3.019887,14.9994 Z M22.487517,5.265 C22.487517,4.7502 22.390017,4.26465 22.195017,3.80835 C22.000017,3.35205 21.732867,2.95425 21.393567,2.61495 C21.054345,2.27565 20.656584,2.0085 20.200284,1.8135 C19.743984,1.6185 19.258473,1.521 18.743751,1.521 L18.228951,1.521 C18.267951,1.404 18.301101,1.2831 18.328401,1.1583 C18.355701,1.0335 18.369351,0.9048 18.369351,0.7722 C18.369351,0.6396 18.355701,0.5109 18.328401,0.3861 C18.301101,0.2613 18.267951,0.1404 18.228951,0.0234 L18.743751,0.0234 C19.469073,0.0234 20.149584,0.16185 20.785284,0.43875 C21.420906,0.71565 21.974667,1.09005 22.446567,1.56195 C22.918389,2.03385 23.29275,2.58765 23.56965,3.22335 C23.84655,3.85905 23.985,4.5396 23.985,5.265 C23.985,5.9904 23.84655,6.67095 23.56965,7.30665 C23.29275,7.94235 22.918389,8.49615 22.446567,8.96805 C21.974667,9.43995 21.420906,9.81435 20.785284,10.09125 C20.149584,10.36815 19.469073,10.5066 18.743751,10.5066 L16.123068,10.5066 L16.871868,9.009 L18.743751,9.009 C19.258473,9.009 19.743984,8.90955 20.200284,8.71065 C20.656584,8.51175 21.054345,8.24265 21.393567,7.90335 C21.732867,7.56405 22.000017,7.1682 22.195017,6.7158 C22.390017,6.2634 22.487517,5.7798 22.487517,5.265 Z" id="Shape" transform="translate(12.004961, 12.004200) scale(-1, 1) rotate(-180.000000) translate(-12.004961, -12.004200) "></path>
                </g>
            </g>
        </g>
    </g>
</svg>