<?xml version="1.0" encoding="UTF-8"?>
<svg width="54px" height="54px" viewBox="-1 -1 54 54" version="1.1" xmlns="http://www.w3.org/2000/svg" xmlns:xlink="http://www.w3.org/1999/xlink">
    <!-- Generator: sketchtool 47.1 (45422) - http://www.bohemiancoding.com/sketch -->
    <title>8068CB17-991D-4867-B71A-5A0711A891EB</title>
    <desc>Created with sketchtool.</desc>
    <defs></defs>
    <g id="VD-V1" stroke="none" stroke-width="1" fill="none" fill-rule="evenodd">
        <g id="Meeting-Capture---attachments" transform="translate(-74.000000, -214.000000)">
            <g id="Group-3-Copy" transform="translate(75.000000, 215.000000)">
                <circle id="Oval" stroke="#2C3034" cx="25" cy="25" r="25"></circle>
                <g id="EB64" transform="translate(13.000000, 16.000000)" fill-rule="nonzero" fill="#2C3034">
                    <path d="M24,17.5384615 L24,0 L17.6132812,0 C18.1914062,0.418669872 18.71875,0.905849359 19.1953125,1.46153846 L22.5,1.46153846 L22.5,16.0769231 L16.9335938,16.0769231 L15.4335938,17.5384615 L8.56640625,17.5384615 L7.06640625,16.0769231 L1.5,16.0769231 L1.5,1.46153846 L4.8046875,1.46153846 C5.28125,0.905849359 5.80859375,0.418669872 6.38671875,0 L0,0 L0,17.5384615 L6.43359375,17.5384615 L7.93359375,19 L16.0664062,19 L17.5664062,17.5384615 L24,17.5384615 L24,17.5384615 Z M12,14.6153846 C13.0390625,14.6153846 14.0136719,14.4250801 14.9238281,14.0444712 C15.8339844,13.6638622 16.6289062,13.1424279 17.3085938,12.4801683 C17.9882812,11.8179087 18.5234375,11.0433694 18.9140625,10.1565505 C19.3046875,9.26973157 19.5,8.32011218 19.5,7.30769231 C19.5,6.29527244 19.3046875,5.34565304 18.9140625,4.45883413 C18.5234375,3.57201522 17.9882812,2.79747596 17.3085938,2.13521635 C16.6289062,1.47295673 15.8339844,0.951522436 14.9238281,0.570913462 C14.0136719,0.190304487 13.0390625,0 12,0 C10.9609375,0 9.98632812,0.190304487 9.07617188,0.570913462 C8.16601562,0.951522436 7.37109375,1.47295673 6.69140625,2.13521635 C6.01171875,2.79747596 5.4765625,3.57201522 5.0859375,4.45883413 C4.6953125,5.34565304 4.5,6.29527244 4.5,7.30769231 C4.5,8.32011218 4.6953125,9.26973157 5.0859375,10.1565505 C5.4765625,11.0433694 6.01171875,11.8179087 6.69140625,12.4801683 C7.37109375,13.1424279 8.16601562,13.6638622 9.07617188,14.0444712 C9.98632812,14.4250801 10.9609375,14.6153846 12,14.6153846 L12,14.6153846 Z M12,1.46153846 C12.828125,1.46153846 13.6054688,1.6156851 14.3320312,1.92397837 C15.0585938,2.23227163 15.6933594,2.65094151 16.2363281,3.17998798 C16.7792969,3.70903446 17.2089844,4.32752404 17.5253906,5.03545673 C17.8417969,5.74338942 18,6.50080128 18,7.30769231 C18,8.11458333 17.8417969,8.87199519 17.5253906,9.57992788 C17.2089844,10.2878606 16.7792969,10.9063502 16.2363281,11.4353966 C15.6933594,11.9644431 15.0585938,12.383113 14.3320312,12.6914062 C13.6054688,12.9996995 12.828125,13.1538462 12,13.1538462 C11.171875,13.1538462 10.3945312,12.9996995 9.66796875,12.6914062 C8.94140625,12.383113 8.30664062,11.9644431 7.76367188,11.4353966 C7.22070312,10.9063502 6.79101562,10.2878606 6.47460938,9.57992788 C6.15820312,8.87199519 6,8.11458333 6,7.30769231 C6,6.50080128 6.15820312,5.74338942 6.47460938,5.03545673 C6.79101562,4.32752404 7.22070312,3.70903446 7.76367188,3.17998798 C8.30664062,2.65094151 8.94140625,2.23227163 9.66796875,1.92397837 C10.3945312,1.6156851 11.171875,1.46153846 12,1.46153846 L12,1.46153846 Z M12,11.6923077 C12.6171875,11.6923077 13.1992188,11.578125 13.7460938,11.3497596 C14.2929688,11.1213942 14.7714844,10.8073918 15.1816406,10.4077524 C15.5917969,10.008113 15.9140625,9.54186699 16.1484375,9.00901442 C16.3828125,8.47616186 16.5,7.90905449 16.5,7.30769231 L15,7.30769231 C15,7.71113782 14.921875,8.08984375 14.765625,8.4438101 C14.609375,8.79777644 14.3945312,9.10797276 14.1210938,9.37439904 C13.8476562,9.64082532 13.5292969,9.85016026 13.1660156,10.0024038 C12.8027344,10.1546474 12.4140625,10.2307692 12,10.2307692 L12,11.6923077 Z" id="Shape" transform="translate(12.000000, 9.500000) scale(-1, 1) rotate(-180.000000) translate(-12.000000, -9.500000) "></path>
                </g>
            </g>
        </g>
    </g>
</svg>