<?xml version="1.0" encoding="UTF-8"?>
<svg width="26px" height="20px" viewBox="-1 -1 26 20" version="1.1" xmlns="http://www.w3.org/2000/svg" xmlns:xlink="http://www.w3.org/1999/xlink">
    <!-- Generator: sketchtool 47.1 (45422) - http://www.bohemiancoding.com/sketch -->
    <title>CC50C5F1-0F54-450F-ABD1-1F29012D9397</title>
    <desc>Created with sketchtool.</desc>
    <defs></defs>
    <g id="VD-V1" stroke="none" stroke-width="1" fill="none" fill-rule="evenodd">
        <g id="Meeting-Capture-Dashboard-Empty" transform="translate(-143.000000, -196.000000)" fill-rule="nonzero" fill="#2C3034">
            <g id="E902-(2)" transform="translate(143.000000, 196.000000)">
                <path d="M12.0042,6.009 C12.0042,6.009 12.207,6.009 12.6126,6.009 C13.0182,6.009 13.5174,6.3015 14.1102,6.8865 C14.703,7.4715 14.9994,8.1774 14.9994,9.0042 C14.9994,9.831 14.7069,10.5369 14.1219,11.1219 C13.5369,11.7069 12.831,11.9994 12.0042,11.9994 C11.1774,11.9994 10.4715,11.703 9.8865,11.1102 C9.3015,10.5174 9.009,9.8154 9.009,9.0042 C9.009,8.193 9.3054,7.491 9.8982,6.8982 C10.491,6.3054 11.193,6.009 12.0042,6.009 L12.0042,6.009 Z M20.5569,16.0593 C20.2527,16.3479 19.8978,16.4922 19.4922,16.4922 C19.0866,16.4922 18.7356,16.344 18.4392,16.0476 C18.1428,15.7512 17.9946,15.4002 17.9946,14.9946 C17.9946,14.5734 18.1389,14.2185 18.4275,13.9299 C18.7161,13.6413 19.071,13.497 19.4922,13.497 C19.9134,13.497 20.2644,13.6452 20.5452,13.9416 C20.8416,14.238 20.9898,14.589 20.9898,14.9946 C20.9898,15.4002 20.8455,15.7551 20.5569,16.0593 L20.5569,16.0593 Z M5.5809,16.0593 C5.2767,16.3479 4.9218,16.4922 4.5162,16.4922 C4.1106,16.4922 3.7596,16.344 3.4632,16.0476 C3.1668,15.7512 3.0186,15.4002 3.0186,14.9946 C3.0186,14.5734 3.1629,14.2185 3.4515,13.9299 C3.7401,13.6413 4.095,13.497 4.5162,13.497 C4.9374,13.497 5.2884,13.6452 5.5692,13.9416 C5.8656,14.238 6.0138,14.589 6.0138,14.9946 C6.0138,15.4002 5.8695,15.7551 5.5809,16.0593 L5.5809,16.0593 Z M17.316,12.9354 C16.77,13.5126 16.497,14.2068 16.497,15.018 C16.497,15.8214 16.7895,16.51755 17.3745,17.10645 C17.9595,17.69535 18.6654,17.9898 19.4922,17.9898 C20.319,17.9898 21.0249,17.6973 21.6099,17.1123 C22.1949,16.5273 22.4874,15.8292 22.4874,15.018 C22.4874,14.2068 22.2144,13.5126 21.6684,12.9354 C22.386,12.5376 22.9515,11.9877 23.3649,11.2857 C23.7783,10.5837 23.985,9.8232 23.985,9.0042 L22.4874,9.0042 C22.4874,9.831 22.1949,10.5369 21.6099,11.1219 C21.0249,11.7069 20.319,11.9994 19.4922,11.9994 C18.6654,11.9994 17.9595,11.70495 17.3745,11.11605 C16.7895,10.52715 16.497,9.8505 16.497,9.0861 C16.497,8.3217 16.33515,7.6197 16.01145,6.9801 C15.68775,6.3405 15.2412,5.8101 14.6718,5.3889 C16.2396,4.5933 17.18535,3.63975 17.50905,2.52825 C17.83275,1.41675 17.9946,0.5802 17.9946,0.0186 L16.497,0.0186 C16.497,1.251 16.0563,2.3079 15.1749,3.1893 C14.2935,4.0707 13.2366,4.5114 12.0042,4.5114 C10.7718,4.5114 9.7149,4.0707 8.8335,3.1893 C7.9521,2.3079 7.5114,1.251 7.5114,0.0186 L6.0138,0.0186 C6.0138,1.134 6.3102,2.1792 6.903,3.1542 C7.4958,4.1292 8.307,4.8741 9.3366,5.3889 C8.7672,5.8101 8.32065,6.3405 7.99695,6.9801 C7.67325,7.6197 7.5114,8.2164 7.5114,8.7702 C7.5114,9.753 7.2189,10.5369 6.6339,11.1219 C6.0489,11.7069 5.343,11.9994 4.5162,11.9994 C3.6894,11.9994 2.9835,11.70495 2.3985,11.11605 C1.8135,10.52715 1.521,9.8232 1.521,9.0042 L0.0234,9.0042 C0.0234,9.7998 0.234,10.5564 0.6552,11.274 C1.0764,11.9916 1.638,12.5454 2.34,12.9354 C1.794,13.5126 1.521,14.2068 1.521,15.018 C1.521,15.8214 1.8135,16.51755 2.3985,17.10645 C2.9835,17.69535 3.6894,17.9898 4.5162,17.9898 C5.343,17.9898 6.0489,17.6973 6.6339,17.1123 C7.2189,16.5273 7.5114,15.8292 7.5114,15.018 C7.5114,14.2068 7.2384,13.5126 6.6924,12.9354 C7.3242,12.5922 7.8468,12.1086 8.2602,11.4846 C8.6814,12.1164 9.2235,12.60975 9.8865,12.96465 C10.5495,13.31955 11.2554,13.497 12.0042,13.497 C12.753,13.497 13.4589,13.31955 14.1219,12.96465 C14.7849,12.60975 15.327,12.1164 15.7482,11.4846 C16.1616,12.1086 16.6842,12.5922 17.316,12.9354 Z" id="Shape" transform="translate(12.004200, 9.004200) scale(-1, 1) rotate(-180.000000) translate(-12.004200, -9.004200) "></path>
            </g>
        </g>
    </g>
</svg>