<?xml version="1.0" encoding="UTF-8"?>
<svg width="26px" height="23px" viewBox="-1 -1 26 23" version="1.1" xmlns="http://www.w3.org/2000/svg" xmlns:xlink="http://www.w3.org/1999/xlink">
    <!-- Generator: sketchtool 47.1 (45422) - http://www.bohemiancoding.com/sketch -->
    <title>D2B13758-E94B-46E7-B009-6243C2517017</title>
    <desc>Created with sketchtool.</desc>
    <defs></defs>
    <g id="VD-V1" stroke="none" stroke-width="1" fill="none" fill-rule="evenodd">
        <g id="Meeting-Capture-Dashboard-Empty" transform="translate(-1108.000000, -83.000000)" fill-rule="nonzero" fill="#FFFFFF">
            <g id="E7FE" transform="translate(1108.000000, 83.000000)">
                <path d="M23.985,13.7241 L23.985,0.2457 L6.0138,0.2457 L6.0138,3.2409 L3.0186,3.2409 L3.0186,6.2361 L0.0234,6.2361 L0.0234,19.7145 L15.3855,19.7145 C14.8473,19.5585 14.32665,19.3557 13.82355,19.1061 C13.32045,18.8565 12.8427,18.5601 12.3903,18.2169 L1.521,18.2169 L1.521,7.7337 L16.497,7.7337 L16.497,13.7241 L17.2458,13.7241 L17.9946,12.9753 L17.9946,6.2361 L4.5162,6.2361 L4.5162,4.7385 L19.4922,4.7385 L19.4922,12.2265 L20.9898,13.7241 L20.9898,3.2409 L7.5114,3.2409 L7.5114,1.7433 L22.4874,1.7433 L22.4874,13.7241 L23.985,13.7241 L23.985,13.7241 Z M10.5066,10.7289 C10.5066,11.4153 10.5963,12.0783 10.7757,12.7179 C10.9551,13.3575 11.20665,13.9542 11.53035,14.508 C11.85405,15.0618 12.24405,15.56685 12.70035,16.02315 C13.15665,16.47945 13.6617,16.86945 14.2155,17.19315 C14.7693,17.51685 15.366,17.7684 16.0056,17.9478 C16.6452,18.1272 17.3082,18.2169 17.9946,18.2169 L19.9251,18.2169 L18.2169,19.9368 L19.2699,20.9898 L22.7916,17.4681 L19.2699,13.9464 L18.2169,14.9994 L19.9251,16.7193 L17.9946,16.7193 C17.1678,16.7193 16.3917,16.56135 15.6663,16.24545 C14.9409,15.92955 14.30715,15.50055 13.76505,14.95845 C13.22295,14.41635 12.79395,13.7826 12.47805,13.0572 C12.16215,12.3318 12.0042,11.5557 12.0042,10.7289 L10.5066,10.7289 Z" id="Shape" transform="translate(12.004200, 10.617750) scale(-1, 1) rotate(-180.000000) translate(-12.004200, -10.617750) "></path>
            </g>
        </g>
    </g>
</svg>