<?xml version="1.0" encoding="UTF-8"?>
<svg width="22px" height="17px" viewBox="0 0 22 17" version="1.1" xmlns="http://www.w3.org/2000/svg" xmlns:xlink="http://www.w3.org/1999/xlink">
    <!-- Generator: sketchtool 47.1 (45422) - http://www.bohemiancoding.com/sketch -->
    <title>93A8E8CF-096B-4A61-9009-C2C7AA400853</title>
    <desc>Created with sketchtool.</desc>
    <defs></defs>
    <g id="VD-V1" stroke="none" stroke-width="1" fill="none" fill-rule="evenodd">
        <g id="Meeting-Capture---Sketch---Saved" transform="translate(-27.000000, -245.000000)" fill-rule="nonzero" fill="#FFFFFF">
            <g id="EB64" transform="translate(27.000000, 245.000000)">
                <path d="M21.12,15.4338462 L21.12,0 L15.4996875,0 C16.0084375,0.368429487 16.4725,0.797147436 16.891875,1.28615385 L19.8,1.28615385 L19.8,14.1476923 L14.9015625,14.1476923 L13.5815625,15.4338462 L7.5384375,15.4338462 L6.2184375,14.1476923 L1.32,14.1476923 L1.32,1.28615385 L4.228125,1.28615385 C4.6475,0.797147436 5.1115625,0.368429487 5.6203125,0 L0,0 L0,15.4338462 L5.6615625,15.4338462 L6.9815625,16.72 L14.1384375,16.72 L15.4584375,15.4338462 L21.12,15.4338462 L21.12,15.4338462 Z M10.56,12.8615385 C11.474375,12.8615385 12.3320312,12.6940705 13.1329687,12.3591346 C13.9339062,12.0241987 14.6334375,11.5653365 15.2315625,10.9825481 C15.8296875,10.3997596 16.300625,9.71816506 16.644375,8.93776442 C16.988125,8.15736378 17.16,7.32169872 17.16,6.43076923 C17.16,5.53983974 16.988125,4.70417468 16.644375,3.92377404 C16.300625,3.1433734 15.8296875,2.46177885 15.2315625,1.87899038 C14.6334375,1.29620192 13.9339062,0.837339744 13.1329687,0.502403846 C12.3320312,0.167467949 11.474375,0 10.56,0 C9.645625,0 8.78796875,0.167467949 7.98703125,0.502403846 C7.18609375,0.837339744 6.4865625,1.29620192 5.8884375,1.87899038 C5.2903125,2.46177885 4.819375,3.1433734 4.475625,3.92377404 C4.131875,4.70417468 3.96,5.53983974 3.96,6.43076923 C3.96,7.32169872 4.131875,8.15736378 4.475625,8.93776442 C4.819375,9.71816506 5.2903125,10.3997596 5.8884375,10.9825481 C6.4865625,11.5653365 7.18609375,12.0241987 7.98703125,12.3591346 C8.78796875,12.6940705 9.645625,12.8615385 10.56,12.8615385 L10.56,12.8615385 Z M10.56,1.28615385 C11.28875,1.28615385 11.9728125,1.42180288 12.6121875,1.69310096 C13.2515625,1.96439904 13.8101562,2.33282853 14.2879687,2.79838942 C14.7657812,3.26395032 15.1439062,3.80822115 15.4223437,4.43120192 C15.7007812,5.05418269 15.84,5.72070513 15.84,6.43076923 C15.84,7.14083333 15.7007812,7.80735577 15.4223437,8.43033654 C15.1439062,9.05331731 14.7657812,9.59758814 14.2879687,10.063149 C13.8101562,10.5287099 13.2515625,10.8971394 12.6121875,11.1684375 C11.9728125,11.4397356 11.28875,11.5753846 10.56,11.5753846 C9.83125,11.5753846 9.1471875,11.4397356 8.5078125,11.1684375 C7.8684375,10.8971394 7.30984375,10.5287099 6.83203125,10.063149 C6.35421875,9.59758814 5.97609375,9.05331731 5.69765625,8.43033654 C5.41921875,7.80735577 5.28,7.14083333 5.28,6.43076923 C5.28,5.72070513 5.41921875,5.05418269 5.69765625,4.43120192 C5.97609375,3.80822115 6.35421875,3.26395032 6.83203125,2.79838942 C7.30984375,2.33282853 7.8684375,1.96439904 8.5078125,1.69310096 C9.1471875,1.42180288 9.83125,1.28615385 10.56,1.28615385 L10.56,1.28615385 Z M10.56,10.2892308 C11.103125,10.2892308 11.6153125,10.18875 12.0965625,9.98778846 C12.5778125,9.78682692 12.9989062,9.51050481 13.3598437,9.15882212 C13.7207812,8.80713942 14.004375,8.39684295 14.210625,7.92793269 C14.416875,7.45902244 14.52,6.95996795 14.52,6.43076923 L13.2,6.43076923 C13.2,6.78580128 13.13125,7.1190625 12.99375,7.43055288 C12.85625,7.74204327 12.6671875,8.01501603 12.4265625,8.24947115 C12.1859375,8.48392628 11.9057812,8.66814103 11.5860937,8.80211538 C11.2664062,8.93608974 10.924375,9.00307692 10.56,9.00307692 L10.56,10.2892308 Z" id="Shape" transform="translate(10.560000, 8.360000) scale(-1, 1) rotate(-180.000000) translate(-10.560000, -8.360000) "></path>
            </g>
        </g>
    </g>
</svg>