<?xml version="1.0" encoding="UTF-8"?>
<svg width="22px" height="22px" viewBox="0 0 22 22" version="1.1" xmlns="http://www.w3.org/2000/svg" xmlns:xlink="http://www.w3.org/1999/xlink">
    <!-- Generator: sketchtool 47.1 (45422) - http://www.bohemiancoding.com/sketch -->
    <title>81E1C0A9-AC10-49B9-A323-B4CFC7C3EACF</title>
    <desc>Created with sketchtool.</desc>
    <defs></defs>
    <g id="VD-V1" stroke="none" stroke-width="1" fill="none" fill-rule="evenodd">
        <g id="Meeting-Capture---Sketch---Saved" transform="translate(-27.000000, -167.000000)" fill-rule="nonzero" fill="#FFFFFF">
            <g id="EF15" transform="translate(27.000000, 167.000000)">
                <path d="M3.65889008,18.660368 C3.56279408,18.605456 3.48385808,18.52652 3.42208208,18.42356 C3.36030608,18.3206 3.32941808,18.210776 3.32941808,18.094088 C3.32941808,18.039176 3.33628208,17.987696 3.35001008,17.939648 C3.36373808,17.8916 3.38089808,17.843552 3.40149008,17.795504 L10.6803502,3.226664 C10.7420576,3.096248 10.8381193,3.000152 10.9685353,2.938376 L12.7496403,2.042624 C12.9692883,1.9328 13.2060963,1.877888 13.4600643,1.877888 C13.4943843,1.877888 13.5269883,1.877888 13.5578763,1.877888 C13.5887643,1.877888 13.6213683,1.88132 13.6556883,1.888184 L14.1394974,0.92036 C14.1944094,0.810536 14.2750614,0.72302 14.3814534,0.657812 C14.4878454,0.592604 14.6028174,0.56 14.7263694,0.56 C14.9048334,0.56 15.0592734,0.625208 15.1896894,0.755624 C15.3201054,0.88604 15.3853134,1.04048 15.3853134,1.218944 C15.3853134,1.301312 15.3612894,1.404272 15.3132414,1.527824 C15.2651934,1.651376 15.2085654,1.780076 15.1433574,1.913924 C15.0781494,2.047772 15.0112254,2.17304 14.9425854,2.289728 C14.8739454,2.406416 14.8224654,2.502512 14.7881454,2.578016 C14.9666094,2.852576 15.0558414,3.15116 15.0558414,3.473768 L15.0558414,5.172608 C15.0558414,5.282432 15.0318174,5.38196 14.9837694,5.471192 L9.05358224,17.332184 L9.72282224,17.661656 L12.1628713,12.781352 C12.2177833,12.671528 12.298401,12.584012 12.4047243,12.518804 C12.5111163,12.453596 12.6260883,12.420992 12.7496403,12.420992 C12.9281043,12.420992 13.0825443,12.4862 13.2129603,12.616616 C13.3433763,12.747032 13.4085843,12.901472 13.4085843,13.079936 C13.4085843,13.169168 13.3845603,13.268696 13.3365123,13.37852 L10.8758713,18.300008 C10.7660473,18.519656 10.6185056,18.692972 10.4332462,18.819956 C10.2479182,18.94694 10.0317022,19.010432 9.78459824,19.010432 C9.54435824,19.010432 9.31613024,18.952088 9.09991424,18.8354 C8.88376688,18.718712 8.6727332,18.608888 8.4668132,18.505928 L7.7357972,19.96796 C7.6808852,20.084648 7.6002332,20.17388 7.4938412,20.235656 C7.3874492,20.297432 7.27251152,20.32832 7.14902816,20.32832 C7.05979616,20.32832 6.98429216,20.314592 6.92251616,20.287136 C6.84014816,20.451872 6.75949616,20.614892 6.68056016,20.776196 C6.60162416,20.9375 6.51239216,21.08336 6.41286416,21.213776 C6.31333616,21.344192 6.19150016,21.448868 6.04735616,21.527804 C5.90321216,21.60674 5.72135048,21.646208 5.50177112,21.646208 C5.28212312,21.646208 5.07277112,21.594728 4.87371512,21.491768 L3.90599408,21.007856 C3.68634608,20.898032 3.51303008,20.752172 3.38604608,20.570276 C3.25906208,20.38838 3.19557008,20.170448 3.19557008,19.91648 C3.19557008,19.683104 3.24876608,19.465172 3.35515808,19.262684 C3.46155008,19.060196 3.56279408,18.859424 3.65889008,18.660368 L3.65889008,18.660368 Z M5.73847616,19.700264 L4.84282712,19.257536 L4.54424312,19.854704 L5.43999512,20.297432 L5.73847616,19.700264 L5.73847616,19.700264 Z M4.87371512,17.795504 L6.85044416,18.78392 L13.7380563,5.018168 L13.7380563,3.473768 C13.7380563,3.398264 13.7106003,3.333056 13.6556883,3.278144 C13.6007763,3.223232 13.5355683,3.195776 13.4600643,3.195776 C13.4326083,3.195776 13.3759803,3.212936 13.2901803,3.247256 C13.2043803,3.281576 13.1048523,3.326192 12.9915963,3.381104 C12.8783403,3.436016 12.7582203,3.496076 12.6312363,3.561284 C12.5042523,3.626492 12.3824506,3.689984 12.2658313,3.75176 C12.1491433,3.813536 12.0461833,3.868448 11.9569513,3.916496 C11.8677193,3.964544 11.8025113,3.998864 11.7613273,4.019456 L4.87371512,17.795504 L4.87371512,17.795504 Z M3.19557008,13.73888 C2.83177808,13.73888 2.4903284,13.67024 2.17122104,13.53296 C1.85204504,13.39568 1.57233704,13.20692 1.33209704,12.96668 C1.09185704,12.72644 0.90309704,12.446732 0.76581704,12.127556 C0.62860568,11.80838 0.56,11.466896 0.56,11.103104 C0.56,10.739312 0.62860568,10.397828 0.76581704,10.078652 C0.90309704,9.759476 1.09185704,9.479768 1.33209704,9.239528 C1.57233704,8.999288 1.85204504,8.810528 2.17122104,8.673248 C2.4903284,8.535968 2.83177808,8.467328 3.19557008,8.467328 L6.16061216,8.467328 L5.50177112,9.785216 L3.19557008,9.785216 C3.01024208,9.785216 2.83864208,9.819536 2.68077008,9.888176 C2.52289808,9.956816 2.38390208,10.051196 2.26378208,10.171316 C2.14373072,10.291436 2.04938504,10.430432 1.98074504,10.588304 C1.91210504,10.746176 1.87778504,10.917776 1.87778504,11.103104 C1.87778504,11.288432 1.91210504,11.460032 1.98074504,11.617904 C2.04938504,11.775776 2.14373072,11.914772 2.26378208,12.034892 C2.38390208,12.155012 2.52289808,12.249392 2.68077008,12.318032 C2.83864208,12.386672 3.01024208,12.420992 3.19557008,12.420992 C3.37403408,12.420992 3.52847408,12.4862 3.65889008,12.616616 C3.78930608,12.747032 3.85451408,12.901472 3.85451408,13.079936 C3.85451408,13.2584 3.78930608,13.41284 3.65889008,13.543256 C3.52847408,13.673672 3.37403408,13.73888 3.19557008,13.73888 L3.19557008,13.73888 Z M20.3270845,5.172608 C20.3270845,4.719584 20.2412845,4.2923 20.0696845,3.890756 C19.8980845,3.489212 19.6629925,3.139148 19.3644085,2.840564 C19.0658931,2.54198 18.7158634,2.306888 18.3143194,2.135288 C17.9127754,1.963688 17.4855258,1.877888 17.0325704,1.877888 L16.5795464,1.877888 C16.6138664,1.774928 16.6430384,1.668536 16.6670624,1.558712 C16.6910864,1.448888 16.7030984,1.335632 16.7030984,1.218944 C16.7030984,1.102256 16.6910864,0.989 16.6670624,0.879176 C16.6430384,0.769352 16.6138664,0.66296 16.5795464,0.56 L17.0325704,0.56 C17.6708538,0.56 18.2697034,0.681836 18.8291194,0.925508 C19.3884668,1.16918 19.8757765,1.498652 20.2910485,1.913924 C20.7062518,2.329196 21.0356895,2.81654 21.2793615,3.375956 C21.5230335,3.935372 21.6448695,4.534256 21.6448695,5.172608 C21.6448695,5.81096 21.5230335,6.409844 21.2793615,6.96926 C21.0356895,7.528676 20.7062518,8.01602 20.2910485,8.431292 C19.8757765,8.846564 19.3884668,9.176036 18.8291194,9.419708 C18.2697034,9.66338 17.6708538,9.785216 17.0325704,9.785216 L14.7263694,9.785216 L15.3853134,8.467328 L17.0325704,8.467328 C17.4855258,8.467328 17.9127754,8.379812 18.3143194,8.20478 C18.7158634,8.029748 19.0658931,7.79294 19.3644085,7.494356 C19.6629925,7.195772 19.8980845,6.847424 20.0696845,6.449312 C20.2412845,6.0512 20.3270845,5.625632 20.3270845,5.172608 Z" id="Shape" transform="translate(11.102435, 11.103104) scale(-1, 1) rotate(-180.000000) translate(-11.102435, -11.103104) "></path>
            </g>
        </g>
    </g>
</svg>