<?xml version="1.0" encoding="UTF-8"?>
<svg width="24px" height="22px" viewBox="0 0 24 22" version="1.1" xmlns="http://www.w3.org/2000/svg" xmlns:xlink="http://www.w3.org/1999/xlink">
    <!-- Generator: sketchtool 47.1 (45422) - http://www.bohemiancoding.com/sketch -->
    <title>FFE58A74-3DD7-4247-AE83-B02B09463F32</title>
    <desc>Created with sketchtool.</desc>
    <defs></defs>
    <g id="VD-V1" stroke="none" stroke-width="1" fill="none" fill-rule="evenodd">
        <g id="Followup-meeting-confirm" transform="translate(-26.000000, -22.000000)" fill-rule="nonzero" fill="#FFFFFF">
            <g id="E169" transform="translate(26.000000, 22.000000)">
                <path d="M0.0234,15.497 L0.0234,21.4874 L6.0138,21.4874 L6.0138,19.9898 L1.521,19.9898 L1.521,15.497 L0.0234,15.497 L0.0234,15.497 Z M1.521,6.5114 L1.521,2.0186 L6.0138,2.0186 L6.0138,0.521 L0.0234,0.521 L0.0234,6.5114 L1.521,6.5114 L1.521,6.5114 Z M22.4874,2.0186 L22.4874,6.5114 L23.985,6.5114 L23.985,0.521 L17.9946,0.521 L17.9946,2.0186 L22.4874,2.0186 L22.4874,2.0186 Z M17.9946,21.4874 L23.985,21.4874 L23.985,15.497 L22.4874,15.497 L22.4874,19.9898 L17.9946,19.9898 L17.9946,21.4874 L17.9946,21.4874 Z" id="Shape" transform="translate(12.004200, 11.004200) scale(-1, 1) rotate(-180.000000) translate(-12.004200, -11.004200) "></path>
            </g>
        </g>
    </g>
</svg>