<?xml version="1.0" encoding="UTF-8"?>
<svg width="18px" height="24px" viewBox="0 0 18 24" version="1.1" xmlns="http://www.w3.org/2000/svg" xmlns:xlink="http://www.w3.org/1999/xlink">
    <!-- Generator: sketchtool 47.1 (45422) - http://www.bohemiancoding.com/sketch -->
    <title>17DA38C4-827D-4E40-9E62-D9EA3BB22582</title>
    <desc>Created with sketchtool.</desc>
    <defs></defs>
    <g id="VD-V1" stroke="none" stroke-width="1" fill="none" fill-rule="evenodd">
        <g id="Meeting-Capture---Sketch---Saved" transform="translate(-28.000000, -92.000000)" fill-rule="nonzero" fill="#FFFFFF">
            <g id="EAC8" transform="translate(28.000000, 92.000000)">
                <path d="M16.539,22.4757 L17.9898,22.4757 L17.9898,0.0234 L0.0186,0.0234 L0.0186,22.4757 L1.4928,22.4757 L1.4928,23.985 L2.9904,23.985 L2.9904,22.4757 L6.009,22.4757 L6.009,23.985 L7.5066,23.985 L7.5066,22.4757 L10.5252,22.4757 L10.5252,23.985 L12.0228,23.985 L12.0228,22.4757 L15.0414,22.4757 L15.0414,23.985 L16.539,23.985 L16.539,22.4757 L16.539,22.4757 Z M16.4922,1.521 L16.4922,20.9781 L1.5162,20.9781 L1.5162,1.521 L16.4922,1.521 L16.4922,1.521 Z M13.497,17.9829 L13.497,16.4853 L4.5114,16.4853 L4.5114,17.9829 L13.497,17.9829 L13.497,17.9829 Z M4.5114,4.4928 L4.5114,5.9904 L13.497,5.9904 L13.497,4.4928 L4.5114,4.4928 L4.5114,4.4928 Z M4.5114,10.4949 L4.5114,11.9925 L13.497,11.9925 L13.497,10.4949 L4.5114,10.4949 Z" id="Shape" transform="translate(9.004200, 12.004200) scale(-1, 1) rotate(-180.000000) translate(-9.004200, -12.004200) "></path>
            </g>
        </g>
    </g>
</svg>